<!DOCTYPE svg PUBLIC "-//W3C//DTD SVG 1.1//EN" "http://www.w3.org/Graphics/SVG/1.1/DTD/svg11.dtd">
<!-- Uploaded to: SVG Repo, www.svgrepo.com, Transformed by: SVG Repo Mixer Tools -->
<svg fill="#ffffff" width="800px" height="800px" viewBox="0 0 32 32" version="1.1" xmlns="http://www.w3.org/2000/svg">
<g id="SVGRepo_bgCarrier" stroke-width="0"/>
<g id="SVGRepo_tracerCarrier" stroke-linecap="round" stroke-linejoin="round"/>
<g id="SVGRepo_iconCarrier"> <title>right-bubble</title> <path d="M0 20q0 2.496 1.76 4.256t4.256 1.76h12l4 5.984 4-5.984q2.464 0 4.224-1.76t1.76-4.256v-13.984q0-2.496-1.76-4.256t-4.224-1.76h-20q-2.496 0-4.256 1.76t-1.76 4.256v13.984zM4 20v-13.984q0-0.832 0.576-1.408t1.44-0.608h20q0.8 0 1.408 0.608t0.576 1.408v13.984q0 0.832-0.576 1.44t-1.408 0.576h-1.344l-2.656 4-2.688-4h-13.312q-0.832 0-1.44-0.576t-0.576-1.44z"/> </g>
</svg>