<!DOCTYPE svg PUBLIC "-//W3C//DTD SVG 1.1//EN" "http://www.w3.org/Graphics/SVG/1.1/DTD/svg11.dtd">
<!-- Uploaded to: SVG Repo, www.svgrepo.com, Transformed by: SVG Repo Mixer Tools -->
<svg fill="#ffffff" width="800px" height="800px" viewBox="0 0 32 32" version="1.1" xmlns="http://www.w3.org/2000/svg">
<g id="SVGRepo_bgCarrier" stroke-width="0"/>
<g id="SVGRepo_tracerCarrier" stroke-linecap="round" stroke-linejoin="round"/>
<g id="SVGRepo_iconCarrier"> <title>headset</title> <path d="M0 16q0 0.832 0.576 1.44t1.44 0.576q0.064 0 0.192-0.032t0.128-0.032q0.448 1.28 1.408 2.272t2.272 1.44v2.336q0 1.664 1.152 2.848t2.848 1.152q0 0.832 0.576 1.44t1.408 0.576h2.016q0.8 0 1.408-0.576t0.576-1.44v-1.984q0-0.832-0.576-1.408t-1.408-0.608h-2.016q-0.832 0-1.408 0.608t-0.576 1.408q-0.832 0-1.44-0.576t-0.576-1.44v-16h2.016q0-0.832 0.576-1.408t1.408-0.576h8q0.832 0 1.408 0.576t0.608 1.408h1.984v14.016q1.952 0 3.488-1.152t2.176-2.912q0.032 0 0.128 0.032t0.224 0.032q0.8 0 1.408-0.576t0.576-1.44-0.576-1.408-1.408-0.576q-0.096 0-0.192 0.032t-0.16 0.032q-0.416-1.28-1.408-2.272t-2.24-1.44v-2.368q0-2.464-1.76-4.224t-4.256-1.76h-8q-2.496 0-4.256 1.76t-1.728 4.224v2.368q-1.312 0.48-2.272 1.44t-1.408 2.272q-0.032 0-0.16-0.032t-0.16-0.032q-0.832 0-1.44 0.576t-0.576 1.408zM4 18.016v-4h2.016v4h-2.016zM26.016 18.016v-4h1.984v4h-1.984z"/> </g>
</svg>